<?xml version="1.0" encoding="utf-8"?>
<!-- Generator: Adobe Illustrator 19.0.0, SVG Export Plug-In . SVG Version: 6.00 Build 0)  -->
<svg version="1.1" id="Layer_1" xmlns="http://www.w3.org/2000/svg" xmlns:xlink="http://www.w3.org/1999/xlink" x="0px" y="0px"
	 viewBox="-284 386 30 30" enable-background="new -284 386 30 30" xml:space="preserve">
<g id="XMLID_176_">
	<circle id="XMLID_181_" fill="#00AFF0" cx="-269" cy="401" r="15"/>
	<g id="XMLID_177_">
		<g enable-background="new    ">
			<path fill="#FFFFFF" d="M-260,405.1c0,0.7-0.1,1.4-0.4,2c-0.3,0.6-0.6,1.2-1.1,1.6c-0.5,0.5-1,0.8-1.6,1.1
				c-0.6,0.3-1.3,0.4-2,0.4c-0.4,0-0.9-0.1-1.3-0.2s-0.8-0.3-1.2-0.5c-0.3,0-0.5,0.1-0.8,0.1s-0.5,0-0.8,0c-0.8,0-1.6-0.1-2.3-0.3
				c-0.7-0.2-1.4-0.5-2-0.9c-0.6-0.4-1.2-0.8-1.7-1.3s-1-1.1-1.3-1.7c-0.4-0.6-0.7-1.3-0.9-2s-0.3-1.5-0.3-2.3c0-0.3,0-0.5,0-0.8
				c0-0.3,0.1-0.5,0.1-0.8c-0.2-0.4-0.4-0.8-0.5-1.2s-0.2-0.8-0.2-1.3c0-0.7,0.1-1.4,0.4-2c0.3-0.6,0.6-1.2,1.1-1.6
				c0.5-0.5,1-0.8,1.6-1.1c0.6-0.3,1.3-0.4,2-0.4c0.4,0,0.9,0.1,1.3,0.2s0.8,0.3,1.2,0.5c0.3,0,0.5-0.1,0.8-0.1s0.5,0,0.8,0
				c0.8,0,1.5,0.1,2.3,0.3c0.7,0.2,1.4,0.5,2.1,0.9s1.2,0.8,1.7,1.3s1,1.1,1.3,1.7c0.4,0.6,0.7,1.3,0.9,2.1s0.3,1.5,0.3,2.3
				c0,0.3,0,0.5,0,0.8c0,0.3-0.1,0.5-0.1,0.8c0.2,0.4,0.4,0.8,0.5,1.2S-260,404.7-260,405.1z M-264.7,403.3c0-0.4-0.1-0.8-0.2-1.2
				c-0.1-0.3-0.3-0.6-0.6-0.9c-0.2-0.2-0.5-0.4-0.9-0.6s-0.7-0.3-1.1-0.4c-0.3-0.1-0.7-0.2-1-0.2c-0.3-0.1-0.7-0.1-1-0.2
				c-0.1,0-0.3-0.1-0.5-0.1c-0.2,0-0.4-0.1-0.5-0.2c-0.2-0.1-0.3-0.2-0.4-0.3c-0.1-0.1-0.2-0.3-0.2-0.5c0-0.2,0.1-0.4,0.2-0.6
				c0.1-0.2,0.2-0.3,0.4-0.4c0.2-0.1,0.4-0.2,0.6-0.2c0.2,0,0.4-0.1,0.6-0.1c0.4,0,0.7,0,0.9,0.1s0.5,0.2,0.6,0.3
				c0.2,0.1,0.3,0.2,0.4,0.4s0.2,0.3,0.3,0.4s0.2,0.2,0.4,0.3s0.3,0.1,0.5,0.1c0.1,0,0.3,0,0.4-0.1c0.1,0,0.2-0.1,0.3-0.2
				s0.2-0.2,0.2-0.3c0.1-0.1,0.1-0.2,0.1-0.4c0-0.3-0.1-0.5-0.2-0.8c-0.1-0.2-0.3-0.4-0.6-0.6c-0.2-0.2-0.5-0.3-0.8-0.5
				c-0.3-0.1-0.6-0.2-0.9-0.3s-0.6-0.2-0.9-0.2s-0.5-0.1-0.7-0.1c-0.5,0-1,0.1-1.5,0.2s-1,0.3-1.4,0.5c-0.4,0.3-0.7,0.6-1,1
				s-0.4,0.9-0.4,1.5c0,0.4,0.1,0.8,0.2,1.1c0.1,0.3,0.3,0.6,0.5,0.8c0.2,0.2,0.5,0.4,0.8,0.6c0.3,0.2,0.7,0.3,1.1,0.4
				c0.5,0.1,0.9,0.2,1.4,0.3s0.9,0.2,1.4,0.3c0.1,0,0.3,0.1,0.4,0.1c0.1,0.1,0.2,0.1,0.3,0.2c0.1,0.1,0.2,0.2,0.2,0.3
				c0.1,0.1,0.1,0.3,0.1,0.4c0,0.2-0.1,0.5-0.2,0.6s-0.3,0.3-0.5,0.4c-0.2,0.1-0.4,0.2-0.6,0.2c-0.2,0.1-0.4,0.1-0.6,0.1
				c-0.4,0-0.7,0-1-0.1c-0.3-0.1-0.5-0.2-0.7-0.3c-0.2-0.1-0.3-0.3-0.5-0.5c-0.1-0.2-0.2-0.3-0.4-0.5c-0.1-0.1-0.2-0.3-0.4-0.3
				s-0.3-0.1-0.5-0.1c-0.3,0-0.5,0.1-0.7,0.3c-0.2,0.2-0.3,0.4-0.3,0.7c0,0.2,0,0.4,0.1,0.5c0.1,0.2,0.2,0.3,0.3,0.5
				c0.2,0.3,0.5,0.6,0.8,0.8c0.3,0.2,0.7,0.4,1,0.5c0.4,0.1,0.7,0.2,1.1,0.3c0.4,0.1,0.8,0.1,1.1,0.1c0.5,0,1-0.1,1.6-0.2
				c0.5-0.1,1-0.3,1.4-0.6c0.4-0.3,0.7-0.6,1-1C-264.9,404.4-264.7,403.9-264.7,403.3z"/>
		</g>
	</g>
</g>
</svg>
